<?xml version="1.0" standalone="yes"?>
<svg version="1.0" width="160" height="160" xmlns="http://www.w3.org/2000/svg">
  <defs>
    <radialGradient id="BlueFace" cx="0.5" cy="0.5" r="0.5" fx="0.25" fy="0.25">
      <stop offset="50%" stop-color="#91c0fb" />
      <stop offset="70%" stop-color="#8cb9f3" />
      <stop offset="100%" stop-color="#5d7ca1" />
    </radialGradient>
    <filter id="spotlight">
      <feSpecularLighting result="spotlight" specularConstant="0.7" specularExponent="120" lighting-color="#FFF">
        <fePointLight x="50" y="40" z="240" />
      </feSpecularLighting>
      <feComposite in="SourceGraphic" in2="spotlight" operator="arithmetic" k1="0" k2="1" k3="1" k4="0" />
    </filter>
    <clipPath id="circle">
      <circle cx="80" cy="80" r="77" />
    </clipPath>
    <radialGradient id="halo" cx="45%" cy="53%" spreadMethod="reflect">
      <stop offset="74%" stop-color="#882" />
      <stop offset="95%" stop-color="#dd5" />
      <stop offset="100%" stop-color="#e7e75f" />
    </radialGradient>
  </defs>
  <ellipse cx="80" cy="41.5" rx="72" ry="34" fill="none" stroke="url(#halo)" stroke-width="15" />
  <circle id="Face" r="80" cx="80" cy="80" fill="url(#BlueFace)" clip-path="url(#circle)" filter="url(#spotlight)" transform="scale(0.92) translate(7 16)" />
  <rect width="16" height="40" x="31" y="40" rx="5" ry="5" transform="skewX(-5) translate(5 0)" />
  <rect width="16" height="40" x="74" y="40" rx="5" ry="5" transform="skewX(-5) translate(5 0)" />
  <path d="M 23 97 a 59 66 15 0 0 114 0 a 4 7 20 0 0 -8 0 a 52 54 40 0 1 -98 0 a 4 7 -20 0 0 -8 0 z" transform="scale(0.52) translate(32 95)" />
</svg>
