<svg xmlns="http://www.w3.org/2000/svg" version="1.0" width="160" height="160">
  <defs>
    <radialGradient id="BlueFace" cx="0.5" cy="0.5" r="0.5" fx="0.25" fy="0.25">
      <stop offset="50%" stop-color="#91c0fb"/>
      <stop offset="70%" stop-color="#8cb9f3"/>
      <stop offset="100%" stop-color="#5d7ca1"/>
    </radialGradient>
    <filter id="spotlight">
      <feSpecularLighting result="spotlight" specularConstant="0.85" specularExponent="120" lighting-color="#FFF">
        <fePointLight x="50" y="40" z="240"/>
      </feSpecularLighting>
      <feComposite in="SourceGraphic" in2="spotlight" operator="arithmetic" k1="0" k2="1" k3="1" k4="0"/>
    </filter>
    <clipPath id="circle">
      <ellipse cx="81" cy="79.5" rx="78" ry="79"/>
    </clipPath>
  </defs>
  <ellipse id="Face" cx="81" cy="79.5" rx="80" ry="81" fill="url(#BlueFace)" clip-path="url(#circle)" filter="url(#spotlight)"/>
  <path d="M 29 101 a 56 62 0 0 0 106 0 a 4 15 15 0 0 -5 -5 a 50 48 0 0 1 -96 0 a 4 15 -15 0 0 -5 5 z"/>
  <path d="M 3 56 a 32 21 0 0 1 27 -9 l 20 5 a 50 20 0 0 1 60 0 l 20 -9 l 30 12 l -2 33 l -5 -23 l -23 -9 l -20 7 a 50 20 0 0 0 -60 0 l -20 -6 a 32 21 0 0 0 -25.5 10 a 30 40 0 0 0 -1.5 12 a 20 20 0 0 1 0 -23 z" fill="#000"/>
  <path d="M 22 53 a 18 22.5 12 0 0 57 0 c 0 -25 -55 -26 -57 0 0 z" fill="#000"/>
  <path d="M 141 53 a 18 22.5 -12 0 1 -57 0 c 0 -25 55 -26 57 0 0 z" fill="#000"/>
</svg>
