<svg xmlns="http://www.w3.org/2000/svg" version="1.0" width="160" height="160">
  <defs>
    <radialGradient id="BlueFace" cx="0.5" cy="0.5" r="0.5" fx="0.25" fy="0.25">
      <stop offset="50%" stop-color="#91c0fb"/>
      <stop offset="70%" stop-color="#8cb9f3"/>
      <stop offset="100%" stop-color="#5d7ca1"/>
    </radialGradient>
    <filter id="spotlight">
      <feSpecularLighting result="spotlight" specularConstant="0.85" specularExponent="120" lighting-color="#FFF">
        <fePointLight x="50" y="40" z="240"/>
      </feSpecularLighting>
      <feComposite in="SourceGraphic" in2="spotlight" operator="arithmetic" k1="0" k2="1" k3="1" k4="0"/>
    </filter>
    <clipPath id="circle">
      <ellipse cx="81" cy="79.5" rx="78" ry="79"/>
    </clipPath>
    <linearGradient id="ShadeShadow" spreadMethod="repeat" x1="15%" x2="53.8%" y1="10%" y2="28%">
        <stop offset="30%" stop-color="#ffffff" />
        <stop offset="100%" stop-color="#000000" />
    </linearGradient>
    <mask id="ShadeMask">
      <rect width="160" height="160" x="0" y="0" fill="url(#ShadeShadow)"/>
    </mask>
    <radialGradient id="Shade" cx="0.5" cy="0.5" r="0.5">
      <stop offset="20%" stop-color="#000000"/>
      <stop offset="65%" stop-color="#3c362b"/>
      <stop offset="80%" stop-color="#433d2f"/>
      <stop offset="100%" stop-color="#2e2b24"/>
    </radialGradient>
  </defs>
  <ellipse id="Face" cx="81" cy="79.5" rx="80" ry="81" fill="url(#BlueFace)" clip-path="url(#circle)" filter="url(#spotlight)"/>
  <path d="M 29 101 a 56 62 0 0 0 106 0 a 4 15 15 0 0 -5 -5 a 50 48 0 0 1 -96 0 a 4 15 -15 0 0 -5 5 z"/>
  <path d="M 3 56 a 32 21 0 0 1 27 -9 l 20 5 a 50 20 0 0 1 60 0 l 20 -9 l 30 12 l -1 31 l -4 -5 l -2 -16 l -23 -9 l -20 7 a 50 20 0 0 0 -60 0 l -20 -6 a 32 21 0 0 0 -25.75 10 a 30 40 0 0 0 -1.25 8 a 15 15 0 0 1 0 -19 z" fill="#000"/>
  <g>
    <path d="M 22 53 a 18 22.5 12 0 0 57 0 c 0 -25 -55 -26 -57 0 0 z" fill="#000000"/>
    <path d="M 22 53 a 18 22.5 12 0 0 57 0 c 0 -25 -55 -26 -57 0 0 z" fill="url(#Shade)" mask="url(#ShadeMask)"/>
  </g>
  <g>
    <path d="M 141 53 a 18 22.5 -12 0 1 -57 0 c 0 -25 55 -26 57 0 0 z" fill="#000000"/>
    <path d="M 141 53 a 18 22.5 -12 0 1 -57 0 c 0 -25 55 -26 57 0 0 z" fill="url(#Shade)" mask="url(#ShadeMask)"/>
  </g>
</svg>