<?xml version="1.0" standalone="yes"?>
<svg version="1.0" width="160" height="160" xmlns="http://www.w3.org/2000/svg" style="background-color:#000" transform="translate(-5 0)">
  <defs>
    <radialGradient id="BlueFace" cx="0.5" cy="0.5" r="0.5" fx="0.25" fy="0.25">
      <stop offset="50%" stop-color="#91c0fb" />
      <stop offset="70%" stop-color="#8cb9f3" />
      <stop offset="100%" stop-color="#5d7ca1" />
    </radialGradient>
    <filter id="spotlight">
      <feSpecularLighting result="spotlight" specularConstant="0.85" specularExponent="120" lighting-color="#FFF">
        <fePointLight x="50" y="40" z="240" />
      </feSpecularLighting>
      <feComposite in="SourceGraphic" in2="spotlight" operator="arithmetic" k1="0" k2="1" k3="1" k4="0" />
    </filter>
    <clipPath id="circle">
      <circle cx="80" cy="80" r="78" />
    </clipPath>
  </defs>
  <rect width="160" height="160" fill="#fff"/>
  <circle id="Face" r="80" cx="80" cy="80" fill="url(#BlueFace)" clip-path="url(#circle)" filter="url(#spotlight)" />
  <rect width="17" height="41" x="43" y="27" rx="5" ry="5" transform="rotate(45 47 58)"  />
  <rect width="17" height="41" x="100" y="27" rx="5" ry="5" transform="rotate(-45 113 58)" />
  <path d="M 33.5 125 a 56 65 0 0 1 93 0 a 4 7 -25 0 1 -8 0 a 50 54 0 0 0 -77 0 a 4 7 25 0 1 -8 0 z" />
</svg>