<?xml version="1.0" standalone="yes"?>
<svg version="1.0" width="160" height="160" xmlns="http://www.w3.org/2000/svg">
  <defs>
    <radialGradient id="BlueFace" cx="0.5" cy="0.5" r="0.5" fx="0.25" fy="0.25">
      <stop offset="60%" stop-color="#f00" />
      <stop offset="100%" stop-color="#800" />
    </radialGradient>
    <filter id="spotlight">
      <feSpecularLighting result="spotlight" specularConstant="0.85" specularExponent="120" lighting-color="#FFF">
        <fePointLight x="45" y="25" z="200" />
      </feSpecularLighting>
      <feComposite in="SourceGraphic" in2="spotlight" operator="arithmetic" k1="0" k2="1" k3="1" k4="0" />
    </filter>
    <clipPath id="circle">
      <circle cx="80" cy="80" r="78" />
    </clipPath>
  </defs>
  <path d="M 10 56 C -14 35 14 -9 12 2 9 20 22 32 24 32 Z" />
  <path d="M 150 56 C 174 35 146 -9 148 2 151 20 138 32 136 32 Z" />
  <g transform="scale(0.95) translate(4 4)">
    <circle id="Face" r="80" cx="80" cy="80" fill="url(#BlueFace)" clip-path="url(#circle)" filter="url(#spotlight)" />
    <rect width="16" height="40" x="50" y="37" rx="5" ry="5" transform="rotate(-40 58 61)"  />
    <rect width="16" height="40" x="94" y="37" rx="5" ry="5" transform="rotate(40 102 61)" />
    <path d="M 25 97 a 56 61 0 0 0 109 0 a 4 7 20 0 0 -8 0 a 50 56 0 0 1 -93 0 a 4 7 -20 0 0 -8 0 z" />
  </g>
</svg>