<?xml version="1.0" standalone="yes"?>
<svg version="1.0" width="160" height="160" xmlns="http://www.w3.org/2000/svg">
  <defs>
    <radialGradient id="BlueFace" cx="0.5" cy="0.5" r="0.5" fx="0.25" fy="0.25">
      <stop offset="50%" stop-color="#91c0fb" />
      <stop offset="70%" stop-color="#8cb9f3" />
      <stop offset="100%" stop-color="#5d7ca1" />
    </radialGradient>
    <filter id="spotlight">
      <feSpecularLighting result="spotlight" specularConstant="0.85" specularExponent="120" lighting-color="#FFF">
        <fePointLight x="50" y="40" z="240" />
      </feSpecularLighting>
      <feComposite in="SourceGraphic" in2="spotlight" operator="lighter" />
    </filter>
    <clipPath id="circle">
      <circle cx="80" cy="80" r="78" />
    </clipPath>">
    <filter id="Blur">
      <feGaussianBlur in="SourceGraphic" stdDeviation="3"/>
    </filter>
    <clipPath id="lips">
      <path d="M 44 112 a 59 42 0 0 0 20 -20 a 10 17 0 0 1 15 0 a 1.5 1.5 0 0 0 2 0 a 10 17 0 0 1 15 0 a 59 42 0 0 0 20 20 c -20 30 -56 30 -72 0 z"/>
    </clipPath>
    <linearGradient id="LipShade" x1="0" x2="0" y1="0" y2="1">
      <stop offset="0%" stop-color="#ff2222" />
      <stop offset="100%" stop-color="#aa0000" />
    </linearGradient>
    <radialGradient id="LipShadow" cx="0.5" cy="0.5" r="0.5">
      <stop offset="20%" stop-color="#770000" />
      <stop offset="100%" stop-color="#BB3344" />
    </radialGradient>
    <radialGradient id="MouthGradient" cx="0.5" cy="0" r="0.5">
      <stop offset="50%" stop-color="#000000" />
      <stop offset="100%" stop-color="#ffffff" />
    </radialGradient>
    <radialGradient id="ShineGradient" cx="0.5" cy="0.5" r="0.5">
      <stop offset="0%" stop-color="#ffffff" stop-opacity="0.85"/>
      <stop offset="100%" stop-color="#ffffff" stop-opacity="0"/>
    </radialGradient>
    <radialGradient id="Shine2Gradient" cx="0.5" cy="0.5" r="0.5" fy="0.65" fx="0.6">
      <stop offset="0%" stop-color="#ffffff" stop-opacity="0.85"/>
      <stop offset="100%" stop-color="#ffffff" stop-opacity="0"/>
    </radialGradient>
    <clipPath id="LowerLip">
      <rect width="80" height="30" x="40" y="112" />
    </clipPath>
    <mask id="LipMask">
      <rect width="160" height="160" x="0" y="0" fill="#000000" />
      <circle r="34" cx="80" cy="80" fill="#ffffff" filter="url(#Blur)"/>
      <circle r="40" cx="80" cy="140" fill="#ffffff" clip-path="url(#LowerLip)" filter="url(#Blur)"/>
      <rect width="26" height="26" x="67" y="107" fill="url(#MouthGradient)" clip-path="url(#LowerLip)"/>
    </mask>
  </defs>
  <circle id="Face" r="80" cx="80" cy="80" fill="url(#BlueFace)" clip-path="url(#circle)" filter="url(#spotlight)" />
  <path d="M 20 71 a 25 23 0 0 1 50 0" stroke="#111" stroke-width="8" stroke-linecap="round" fill="none" />
  <path d="M 90 71 a 25 23 0 0 1 50 0" stroke="#111" stroke-width="8" stroke-linecap="round" fill="none" />
  <circle r="36" cx="80" cy="112" fill="url(#LipShadow)" clip-path="url(#lips)" />
  <rect width="80" height="26" x="40" y="86" fill="url(#LipShade)" clip-path="url(#lips)" mask="url(#LipMask)" />
  <rect width="80" height="22.5" x="40" y="112" fill="url(#LipShade)" clip-path="url(#lips)" mask="url(#LipMask)" />
  <ellipse cx="65" cy="113" rx="10" ry="6" fill="url(#ShineGradient)" mask="url(#LipMask)" clip-path="url(#LowerLip)" />
  <ellipse cx="71" cy="91" rx="9" ry="6" fill="url(#Shine2Gradient)" clip-path="url(#Lips)"/>
</svg>
