<?xml version="1.0" standalone="yes"?>
<svg version="1.0" width="160" height="160" xmlns="http://www.w3.org/2000/svg">
  <defs>
    <radialGradient id="BlueFace" cx="0.5" cy="0.5" r="0.5" fx="0.25" fy="0.25">
      <stop offset="50%" stop-color="#91c0fb" />
      <stop offset="70%" stop-color="#8cb9f3" />
      <stop offset="100%" stop-color="#5d7ca1" />
    </radialGradient>
    <filter id="spotlight">
      <feSpecularLighting result="spotlight" specularConstant="0.85" specularExponent="120" lighting-color="#FFF">
        <fePointLight x="50" y="40" z="240" />
      </feSpecularLighting>
      <feComposite in="SourceGraphic" in2="spotlight" operator="arithmetic" k1="0" k2="1" k3="1" k4="0" />
    </filter>
    <clipPath id="circle">
      <circle cx="80" cy="80" r="78" />
    </clipPath>
    <clipPath id="patch">
      <polygon points="0 70 160 20 160 160 0 160" />
    </clipPath>
  </defs>
  <circle id="Face" r="80" cx="80" cy="80" fill="url(#BlueFace)" clip-path="url(#circle)" filter="url(#spotlight)" />
  <polygon points="0 78 160 35 160 7 0 58" clip-path="url(#circle)" />
  <circle r="26" cx="55" cy="60" clip-path="url(#patch)" />
  <rect width="16" height="41" x="94" y="36" rx="5" ry="5" />
  <path d="M 25 97 a 56 61 0 0 0 109 0 a 4 7 20 0 0 -8 0 a 50 56 0 0 1 -93 0 a 4 7 -20 0 0 -8 0 z" />
</svg>